<?xml version="1.0" encoding="UTF-8"?>
<svg preserveAspectRatio="none" version="1.1" viewBox="0 0 1920 1080" xmlns="http://www.w3.org/2000/svg" xmlns:xlink="http://www.w3.org/1999/xlink">
 <defs>
  <g id="d">
   <path d="m35.95-164l-21.85-6.35q65.9 52.95 48.85 156.35-17.25 129.95-139.95 211-53.45 23.35-103.6 0.85-33.25 5.65-62.4-24.85l-43.95-30q-25.85 21.8-44.6-39.05-53.8-34.55-93.4-86.95-43.3 95.25-71 213.95-15.25 49-13 88.05h227.95q5.65-32.15 22-43 23.95 13.55 40 43l359.7 0.05 143.25 2.65q-41.2-84.95-76-182.65 34.8 97.7 76 182.65l236 4.3q12-67 0-130.05-11.95-162.55-106-288.95-87.85-88.95-232-71-76.1-10.85-146 0z" fill="#39f"/>
   <path d="m-352.95 35l-12-13q-24.75 20.15-60-5 41.8 32.3 72 18m112.95 63q-22.2 7.75-36.55 27.25l36.55-27.25m-59.4-88.25q8.0594-4.8156 14.95-9.55 51.45-35.45 38.45-67.2-17.15 53.716-53.4 76.75m-156.55-33.75h7.7l0.05 0.05q88.4 40.4 212.2-109.05 19.55-5.95 51 0 50.35 24.1 93 75-24.15-60.4-17-113 25.55-29.1-16-84.95 32.7-5.4 56.35 25.35-14.4-176.4-204.3-213.35-238.7 6.2-255 240.95-13.15 124.9 72 179m518.9 10q17.05-103.4-48.85-156.35l-53.75-15.6q11.85 23.05 14.4 42.5 44.7 32.35 37.2 109.45-21 82.65-88.9 130.85-13.4 32.55-36.8 57.7-35.3 37.9-66.85 43.3 50.15 22.5 103.6-0.85 122.7-81.05 139.95-211z"/>
   <path d="m-207 148q-24.65 8.95-46 4.65 34.6 26.8 80-7.65 16.65-18.05 21.6-43.95-27.2 31.7-55.6 46.95m55.6-46.95v-0.05q-62.8 39.55-101.65 51.65h0.05q21.35 4.3 46-4.65 28.4-15.25 55.6-46.95l0.05-0.1-0.05 0.05v0.05z" fill="#FDA046"/>
   <path d="m-25.25-143.45q5.95 45.8-39.75 71.45 16.05 100.6-11.95 168.85 67.9-48.2 88.9-130.85 7.5-77.1-37.2-109.45m-422.95 119.5l-0.05 0.15q1.85 24.85 23.3 40.8 35.25 25.15 60 5l12 13q-30.2 14.3-72-18 39.6 52.4 93.4 86.95-9.05-29.35-16.4-77.95 7.35 48.6 16.4 77.95 18.75 60.85 44.6 39.05 4.55-9.85 10.4-17.75 14.35-19.5 36.55-27.25 5.55-14 0-28 83.2 8.35 90 30l-1.35 0.95-0.05 0.1q-4.95 25.9-21.6 43.95-45.4 34.45-80 7.65h-0.05q38.85-12.1 101.65-51.65l0.05-0.05 1.35-0.95q-6.8-21.65-90-30 5.55 14 0 28l-36.55 27.25q-5.85 7.9-10.4 17.75l43.95 30q29.15 30.5 62.4 24.85 31.55-5.4 66.85-43.3 23.4-25.15 36.8-57.7 28-68.25 11.95-168.85-18.25 3.5-21-24 2.75 27.5 21 24 45.7-25.65 39.75-71.45-2.55-19.45-14.4-42.5-10.7-20.85-29-44.65-23.65-30.75-56.35-25.35 41.55 55.85 16 84.95-7.15 52.6 17 113-42.65-50.9-93-75-31.45-5.95-51 0-123.8 149.45-212.2 109.05m380.2-73.05l10-89q31.45 40.85-10 89m-32-146q30.75 37.5 17 72 13.75-34.5-17-72m-32 357q13.95 5.55 20 19-6.05-13.45-20-19m-172.95-101l5.55-3.25q36.25-23.034 53.4-76.75 13 31.75-38.45 67.2 43.7 1.15 83.45-29.2-39.75 30.35-83.45 29.2-6.8906 4.7344-14.95 9.55l-5.55 3.25z" fill="#FEDAA0"/>
   <path d="m-58-186l-10 89q41.45-48.15 10-89z" fill="#DF7A00"/>
  </g>
  <path id="c" d="m14.1-170.35l21.85 6.35q69.9-10.85 146 0 144.15-17.95 232 71 94.05 126.4 106 288.95 12 63.05 0 130.05l-236-4.3-143.25-2.65-359.7-0.05h-289.95q-2.25-39.05 13-88.05 27.7-118.7 71-213.95-21.45-15.95-23.3-40.8 0.25 5.25-7.7-0.2-85.15-54.1-72-179 16.3-234.75 255-240.95 189.9 36.95 204.3 213.35 18.3 23.8 29 44.65l53.75 15.6q65.9 52.95 48.85 156.35-17.25 129.95-139.95 211-53.45 23.35-103.6 0.85-33.25 5.65-62.4-24.85l-43.95-30q-25.85 21.8-44.6-39.05-53.8-34.55-93.4-86.95 35.25 25.15 60 5l12 13q-30.2 14.3-72-18m708.9 304.7q-41.2-84.95-76-182.65m-663.9-163.05h7.7l0.05 0.05q88.4 40.4 212.2-109.05 19.55-5.95 51 0 50.35 24.1 93 75-24.15-60.4-17-113 25.55-29.1-16-84.95 32.7-5.4 56.35 25.35m-379.6 206.6v0.2m408.6-162.15q11.85 23.05 14.4 42.5 44.7 32.35 37.2 109.45-21 82.65-88.9 130.85-13.4 32.55-36.8 57.7-35.3 37.9-66.85 43.3m122.6-383.85q31.45 40.85-10 89m-8.95 193.85q28-68.25 11.95-168.85-18.25 3.5-21-24m60.75-47.45q5.95 45.8-39.75 71.45m-35-171q30.75 37.5 17 72m-157 269q5.55-14 0-28 83.2 8.35 90 30l-1.35 0.95-0.05 0.1q-4.95 25.9-21.6 43.95-45.4 34.45-80 7.65h-0.05q38.85-12.1 101.65-51.65l0.05-0.05m-0.05 0.05v0.05q-27.2 31.7-55.6 46.95-24.65 8.95-46 4.65m121-38.65q13.95 5.55 20 19m-192.95-120l5.575-3.25q36.225-23.034 53.375-76.75 13 31.75-38.45 67.2 43.7 1.15 83.45-29.2m-98.375 38.75q8.0344-4.8156 14.925-9.55m-2.5 142.8q4.55-9.85 10.4-17.75l36.55-27.25q-22.2 7.75-36.55 27.25m-4.45 193.75q5.65-32.15 22-43 23.95 13.55 40 43m-112.55-215.05q-9.05-29.35-16.4-77.95" fill="none" stroke="#000" stroke-linecap="round" stroke-linejoin="round"/>
 </defs>
 <g transform="translate(935.6 698.8)">
  <use xlink:href="#d"/>
  <use xlink:href="#c"/>
 </g>
</svg>
